<svg width="173" height="111" viewBox="0 0 173 111" fill="none" xmlns="http://www.w3.org/2000/svg">
<path d="M101.678 12.3225C99.3635 9.99014 96.6098 8.14 93.5759 6.87922C90.5419 5.61843 87.288 4.97205 84.0025 4.9775C80.7163 4.97236 77.4617 5.61886 74.427 6.87961C71.3923 8.14035 68.6377 9.99032 66.3225 12.3225C56.575 22.0675 56.575 37.93 66.3225 47.6775C68.6377 50.0103 71.3927 51.8607 74.4279 53.1214C77.4632 54.3822 80.7183 55.0284 84.005 55.0225C87.2903 55.0283 90.5441 54.3823 93.5781 53.1219C96.612 51.8616 99.3658 50.0119 101.68 47.68C111.428 37.935 111.428 22.0725 101.678 12.3225ZM84.4525 10H83.555C83.7075 9.9975 83.8525 9.9775 84.005 9.9775C84.1575 9.9775 84.3 9.9975 84.4525 10ZM99.6075 42.5H94L90.855 48.79C88.6611 49.6005 86.3414 50.0177 84.0025 50.0225C81.6593 50.0182 79.3353 49.6001 77.1375 48.7875L74 42.525H68.4125C66.3511 39.9622 64.957 36.9284 64.355 33.695L69 27.5L65.96 21.4175C66.93 19.354 68.2485 17.4731 69.8575 15.8575C72.1095 13.5976 74.8697 11.9098 77.9075 10.935L84 15L90.095 10.9375C93.1319 11.913 95.8918 13.5998 98.145 15.8575C99.7523 17.4712 101.07 19.3494 102.04 21.41L99 27.5L103.645 33.695C103.046 36.918 101.659 39.9428 99.6075 42.5Z" fill="#22668A"/>
<path d="M75.25 27.5L79 37.5H89L92.75 27.5L84 21.25L75.25 27.5Z" fill="#22668A"/>
<path d="M12.132 95.764C12.132 97.42 11.952 98.812 11.592 99.94C11.232 101.068 10.572 101.92 9.612 102.496C8.652 103.072 7.272 103.36 5.472 103.36C4.644 103.36 3.792 103.288 2.916 103.144C2.04 103.012 1.398 102.892 0.99 102.784L1.098 97.978C1.446 98.05 1.842 98.146 2.286 98.266C2.742 98.386 3.246 98.446 3.798 98.446C5.01 98.446 5.826 98.128 6.246 97.492C6.666 96.844 6.876 95.8 6.876 94.36V76.972H12.132V95.764ZM21.0544 94.9C21.0424 95.848 21.1924 96.676 21.5044 97.384C21.8164 98.08 22.2664 98.62 22.8544 99.004C23.4544 99.376 24.1744 99.562 25.0144 99.562C25.9144 99.562 26.7004 99.37 27.3724 98.986C28.0564 98.602 28.5304 97.972 28.7944 97.096H33.5284C33.3244 98.416 32.7964 99.544 31.9444 100.48C31.1044 101.416 30.0844 102.13 28.8844 102.622C27.6844 103.114 26.4364 103.36 25.1404 103.36C23.3044 103.36 21.6844 102.976 20.2804 102.208C18.8884 101.428 17.8024 100.33 17.0224 98.914C16.2424 97.498 15.8524 95.83 15.8524 93.91C15.8524 92.05 16.2064 90.376 16.9144 88.888C17.6224 87.388 18.6484 86.206 19.9924 85.342C21.3484 84.466 22.9744 84.028 24.8704 84.028C26.7664 84.028 28.3564 84.43 29.6404 85.234C30.9364 86.026 31.9084 87.136 32.5564 88.564C33.2164 89.98 33.5464 91.618 33.5464 93.478V94.9H21.0544ZM21.0364 91.768H28.6324C28.6324 91.024 28.4944 90.34 28.2184 89.716C27.9424 89.092 27.5224 88.6 26.9584 88.24C26.4064 87.88 25.7104 87.7 24.8704 87.7C24.0544 87.7 23.3584 87.898 22.7824 88.294C22.2184 88.678 21.7864 89.182 21.4864 89.806C21.1864 90.43 21.0364 91.084 21.0364 91.768ZM37.1953 103V84.388H42.2533V88.798C42.5533 87.85 42.9733 87.022 43.5133 86.314C44.0653 85.594 44.7313 85.036 45.5113 84.64C46.2913 84.232 47.1733 84.028 48.1573 84.028C48.3253 84.028 48.4813 84.04 48.6253 84.064C48.7813 84.076 48.8953 84.1 48.9673 84.136V89.14C48.8593 89.092 48.7273 89.062 48.5713 89.05C48.4273 89.038 48.2953 89.026 48.1753 89.014C47.1433 88.93 46.2613 88.96 45.5293 89.104C44.7973 89.248 44.2033 89.494 43.7473 89.842C43.2913 90.19 42.9613 90.616 42.7573 91.12C42.5533 91.624 42.4513 92.188 42.4513 92.812V103H37.1953ZM59.1472 103.36C57.8512 103.36 56.6032 103.15 55.4032 102.73C54.2032 102.298 53.1892 101.626 52.3612 100.714C51.5332 99.79 51.0052 98.596 50.7772 97.132H55.3312C55.4872 97.792 55.7692 98.314 56.1772 98.698C56.5972 99.082 57.0712 99.358 57.5992 99.526C58.1272 99.682 58.6312 99.76 59.1112 99.76C60.1192 99.76 60.9292 99.604 61.5412 99.292C62.1652 98.968 62.4772 98.476 62.4772 97.816C62.4772 97.312 62.2912 96.91 61.9192 96.61C61.5592 96.31 60.9592 96.082 60.1192 95.926L56.8432 95.242C55.1992 94.894 53.8792 94.306 52.8832 93.478C51.8872 92.638 51.3772 91.45 51.3532 89.914C51.3532 88.798 51.6472 87.796 52.2352 86.908C52.8352 86.02 53.7172 85.318 54.8812 84.802C56.0452 84.286 57.4732 84.028 59.1652 84.028C61.4572 84.028 63.2872 84.532 64.6552 85.54C66.0352 86.548 66.7372 87.97 66.7612 89.806H62.3692C62.2372 89.086 61.8772 88.534 61.2892 88.15C60.7132 87.754 59.9872 87.556 59.1112 87.556C58.1992 87.556 57.4492 87.718 56.8612 88.042C56.2732 88.366 55.9792 88.858 55.9792 89.518C55.9792 90.01 56.2192 90.4 56.6992 90.688C57.1792 90.964 57.9232 91.204 58.9312 91.408L61.9552 92.092C62.9992 92.344 63.8452 92.692 64.4932 93.136C65.1532 93.568 65.6632 94.042 66.0232 94.558C66.3832 95.074 66.6292 95.596 66.7612 96.124C66.9052 96.64 66.9772 97.108 66.9772 97.528C66.9772 98.764 66.6472 99.82 65.9872 100.696C65.3272 101.56 64.4092 102.22 63.2332 102.676C62.0572 103.132 60.6952 103.36 59.1472 103.36ZM75.9561 84.388V103H70.9341V84.388H75.9561ZM76.0101 76.99V81.724H70.8981V76.99H76.0101ZM81.9068 103V76.972H90.7088C92.5688 76.972 94.2248 77.284 95.6768 77.908C97.1288 78.532 98.2688 79.456 99.0968 80.68C99.9368 81.904 100.357 83.41 100.357 85.198C100.357 86.926 99.9668 88.402 99.1868 89.626C98.4188 90.85 97.3448 91.78 95.9648 92.416C94.5848 93.052 92.9828 93.37 91.1588 93.37H85.3268V103H81.9068ZM85.3088 90.562H91.0868C92.8748 90.562 94.3268 90.064 95.4428 89.068C96.5588 88.072 97.1168 86.716 97.1168 85C97.1168 83.272 96.5408 81.964 95.3888 81.076C94.2368 80.188 92.7488 79.744 90.9248 79.744H85.3088V90.562ZM105.958 94.468C105.958 95.644 106.15 96.712 106.534 97.672C106.93 98.62 107.524 99.376 108.316 99.94C109.12 100.504 110.122 100.786 111.322 100.786C112.51 100.786 113.53 100.51 114.382 99.958C115.246 99.406 115.798 98.608 116.038 97.564H119.188C118.96 98.824 118.456 99.886 117.676 100.75C116.896 101.614 115.954 102.268 114.85 102.712C113.746 103.144 112.594 103.36 111.394 103.36C109.654 103.36 108.124 102.982 106.804 102.226C105.484 101.47 104.452 100.384 103.708 98.968C102.964 97.552 102.592 95.854 102.592 93.874C102.592 91.918 102.928 90.202 103.6 88.726C104.272 87.25 105.244 86.098 106.516 85.27C107.8 84.442 109.342 84.028 111.142 84.028C112.894 84.028 114.376 84.406 115.588 85.162C116.8 85.918 117.718 86.986 118.342 88.366C118.978 89.734 119.296 91.36 119.296 93.244V94.468H105.958ZM105.976 92.218H116.092C116.092 91.15 115.912 90.19 115.552 89.338C115.192 88.474 114.64 87.796 113.896 87.304C113.164 86.8 112.24 86.548 111.124 86.548C109.96 86.548 108.994 86.83 108.226 87.394C107.47 87.946 106.9 88.66 106.516 89.536C106.144 90.4 105.964 91.294 105.976 92.218ZM130.581 103.36C128.169 103.36 126.255 102.532 124.839 100.876C123.423 99.22 122.715 96.802 122.715 93.622C122.715 91.69 122.997 90.004 123.561 88.564C124.137 87.124 124.989 86.008 126.117 85.216C127.245 84.424 128.649 84.028 130.329 84.028C131.217 84.028 132.003 84.142 132.687 84.37C133.383 84.598 133.983 84.886 134.487 85.234C134.991 85.582 135.399 85.942 135.711 86.314C136.035 86.686 136.275 87.028 136.431 87.34V76.252H139.779V103H137.241L136.881 99.184C136.761 99.544 136.569 99.964 136.305 100.444C136.041 100.912 135.669 101.374 135.189 101.83C134.709 102.274 134.091 102.64 133.335 102.928C132.591 103.216 131.673 103.36 130.581 103.36ZM131.175 100.804C133.059 100.804 134.403 100.234 135.207 99.094C136.023 97.942 136.431 96.064 136.431 93.46C136.419 92.008 136.233 90.772 135.873 89.752C135.525 88.732 134.973 87.958 134.217 87.43C133.473 86.89 132.483 86.62 131.247 86.62C129.711 86.62 128.463 87.166 127.503 88.258C126.543 89.35 126.063 91.084 126.063 93.46C126.063 95.788 126.495 97.594 127.359 98.878C128.235 100.162 129.507 100.804 131.175 100.804ZM149.088 84.388V103H145.866V84.388H149.088ZM149.16 76.99V80.446H145.758V76.99H149.16ZM160.093 103.36C158.893 103.36 157.831 103.15 156.907 102.73C155.983 102.298 155.257 101.68 154.729 100.876C154.213 100.072 153.955 99.1 153.955 97.96C153.955 95.896 154.675 94.36 156.115 93.352C157.555 92.344 159.865 91.804 163.045 91.732L166.375 91.642V90.184C166.375 89.044 166.033 88.144 165.349 87.484C164.665 86.812 163.603 86.476 162.163 86.476C161.095 86.488 160.153 86.74 159.337 87.232C158.533 87.724 158.011 88.528 157.771 89.644H154.837C154.909 88.432 155.251 87.412 155.863 86.584C156.475 85.744 157.327 85.108 158.419 84.676C159.523 84.244 160.825 84.028 162.325 84.028C163.945 84.028 165.289 84.256 166.357 84.712C167.437 85.168 168.241 85.84 168.769 86.728C169.309 87.616 169.579 88.708 169.579 90.004V103H166.735L166.501 99.508C165.781 100.96 164.863 101.968 163.747 102.532C162.643 103.084 161.425 103.36 160.093 103.36ZM161.101 100.966C161.725 100.966 162.343 100.852 162.955 100.624C163.579 100.396 164.149 100.09 164.665 99.706C165.181 99.31 165.589 98.872 165.889 98.392C166.201 97.9 166.363 97.396 166.375 96.88V93.694L163.603 93.748C162.187 93.772 160.999 93.916 160.039 94.18C159.091 94.444 158.377 94.858 157.897 95.422C157.429 95.986 157.195 96.724 157.195 97.636C157.195 98.68 157.555 99.496 158.275 100.084C159.007 100.672 159.949 100.966 161.101 100.966Z" fill="#22668A"/>
</svg>
